#!OML:ASF F:\VICON\USERDATA\INSTALL\rory3\rory3.ASF
:FULLY-SPECIFIED
:DEGREES
65
root -11.4023 17.8143 -6.63562 -1.19185 -6.04706 -2.62022
lowerback 9.96404 2.82935 0.738687
upperback 0.277064 3.87803 0.578709
thorax -5.28482 1.89903 -0.366826
lowerneck -21.4726 -5.47813 -11.2677
upperneck 28.5814 -6.87687 9.31646
head 14.1117 -2.95642 4.40874
rclavicle 3.85083e-014 1.98785e-016
rhumerus -25.8879 -11.543 -82.7648
rradius 33.7468
rwrist 3.03886
rhand -17.9149 9.29899
rfingers 7.12502
rthumb 8.35244 -20.5159
lclavicle 3.85083e-014 1.98785e-016
lhumerus -37.3661 7.22852 84.2977
lradius 25.1326
lwrist -11.0996
lhand -17.5807 28.4465
lfingers 7.12502
lthumb 8.67498 58.2482
rfemur 10.9146 2.0764 25.3142
rtibia 26.7682
rfoot -8.6542 -4.01089
rtoes -9.28525
lfemur -16.3479 0.079155 -20.1219
ltibia 10.0394
lfoot 5.08897 8.56965
ltoes -5.36336
66
root -11.3827 17.8332 -6.4643 -1.37822 -5.96676 -2.13233
lowerback 9.78784 2.86203 0.1961
upperback 0.296099 3.85093 0.433401
thorax -5.1919 1.89843 -0.201228
lowerneck -21.3676 -5.44415 -11.1778
upperneck 28.6413 -6.83656 9.19692
head 14.0998 -2.94807 4.354
rclavicle -1.85988e-014 -2.98177e-015
rhumerus -26.2062 -11.8309 -82.7965
rradius 33.6427
rwrist 2.94739
rhand -17.7681 9.63396
rfingers 7.12502
rthumb 8.4941 -20.1752
lclavicle -1.85988e-014 -2.98177e-015
lhumerus -37.3846 7.63333 84.013
lradius 24.8135
lwrist -11.6981
lhand -17.4193 27.8694
lfingers 7.12502
lthumb 8.83076 57.6646
rfemur 10.5736 1.82534 24.5819
rtibia 28.529
rfoot -7.50866 -3.78303
rtoes -9.58659
lfemur -15.4947 0.621948 -20.8981
ltibia 9.64489
lfoot 6.07801 6.62282
ltoes -3.12513
67
root -11.3592 17.8506 -6.29374 -1.59241 -5.64269 -1.71006
lowerback 9.57109 2.77116 -0.220987
upperback 0.423763 3.67788 0.339211
thorax -4.95688 1.82342 -0.0265819
lowerneck -21.5233 -5.46031 -11.2881
upperneck 28.7532 -6.80826 9.19521
head 14.1834 -2.94551 4.38149
rclavicle 1.77167e-014 3.77691e-015
rhumerus -26.2327 -12.2151 -82.8228
rradius 33.3115
rwrist 3.16762
rhand -17.7192 9.63585
rfingers 7.12502
rthumb 8.54134 -20.1714
lclavicle 1.77167e-014 3.77691e-015
lhumerus -37.2427 8.20005 83.7538
lradius 24.418
lwrist -12.175
lhand -17.775 26.59
lfingers 7.12502
lthumb 8.48747 56.3995
rfemur 10.2351 1.27829 23.8489
rtibia 30.258
rfoot -6.2666 -3.57156
rtoes -8.28913
lfemur -14.8352 0.923498 -21.6154
ltibia 9.66806
lfoot 6.59271 5.3026
ltoes -1.55482
68
root -11.3356 17.8653 -6.12497 -1.85056 -5.25014 -1.54841
lowerback 9.51752 2.66477 -0.306166
upperback 0.471403 3.5231 0.260677
thorax -4.87634 1.74847 -0.0350537
lowerneck -21.4058 -5.47416 -11.2837
upperneck 28.813 -6.82893 9.13748
head 14.1842 -2.96515 4.35555
rclavicle 3.64521e-014 7.95139e-016
rhumerus -26.3946 -12.8193 -82.8168
rradius 32.8676
rwrist 3.68867
rhand -17.4108 9.36224
rfingers 7.12502
rthumb 8.83892 -20.4326
lclavicle 3.64521e-014 7.95139e-016
lhumerus -37.1962 8.7416 83.3909
lradius 23.9674
lwrist -12.8791
lhand -17.8747 26.0693
lfingers 7.12502
lthumb 8.39131 55.8826
rfemur 9.89154 0.619447 23.4072
rtibia 31.9999
rfoot -4.63498 -3.35035
rtoes -7.57934
lfemur -14.2744 1.16738 -22.031
ltibia 9.97187
lfoot 6.60997 4.77447
ltoes -0.674161
69
root -11.3135 17.8828 -5.96046 -2.09349 -4.87202 -1.60216
lowerback 9.67306 2.57999 -0.20717
upperback 0.366726 3.42043 0.240666
thorax -5.06535 1.69453 -0.10786
lowerneck -21.0591 -5.43048 -11.2674
upperneck 28.8852 -6.79973 9.08889
head 14.1337 -2.96643 4.34305
rclavicle -2.17421e-015 4.17448e-015
rhumerus -26.9657 -13.4289 -82.7253
rradius 32.7286
rwrist 4.15676
rhand -16.6731 8.79342
rfingers 7.12502
rthumb 9.55079 -20.9701
lclavicle -2.17421e-015 4.17448e-015
lhumerus -37.4773 9.00308 83.1068
lradius 23.7987
lwrist -13.3822
lhand -17.8571 25.7161
lfingers 7.12502
lthumb 8.4082 55.5287
rfemur 9.44641 -0.0336695 23.1918
rtibia 33.8
rfoot -2.56801 -3.04638
rtoes -6.44582
lfemur -13.8692 1.43245 -22.1906
ltibia 10.5251
lfoot 6.46011 4.35232
ltoes -0.934053
70
root -11.2875 17.9021 -5.80148 -2.26991 -4.39629 -1.60561
lowerback 9.74124 2.44215 -0.142146
upperback 0.345707 3.24397 0.232081
thorax -5.12079 1.60559 -0.13232
lowerneck -21.0129 -5.43361 -11.3106
upperneck 28.9647 -6.77406 9.01544
head 14.1536 -2.97188 4.32814
rclavicle -5.49826e-014 6.75868e-015
rhumerus -27.5731 -13.7467 -82.6988
rradius 32.9998
rwrist 4.29471
rhand -16.2868 8.48086
rfingers 7.12502
rthumb 9.92342 -21.2652
lclavicle -5.49826e-014 6.75868e-015
lhumerus -37.553 9.25928 82.9545
lradius 23.6618
lwrist -13.8347
lhand -18.2745 25.2229
lfingers 7.12502
lthumb 8.00542 55.0513
rfemur 8.80995 -0.777483 22.8651
rtibia 35.6936
rfoot -0.0468009 -2.62423
rtoes -4.07839
lfemur -13.528 1.56149 -22.4199
ltibia 11.1938
lfoot 6.03912 3.91365
ltoes -0.0474857
71
root -11.2581 17.915 -5.64464 -2.42085 -3.94628 -1.46399
lowerback 9.70203 2.30397 -0.1865
upperback 0.365301 3.05206 0.170322
thorax -5.07668 1.51155 -0.14253
lowerneck -21.0864 -5.43139 -11.3177
upperneck 29.1211 -6.73937 8.92412
head 14.2296 -2.96959 4.30358
rclavicle -9.43606e-015 -6.36111e-015
rhumerus -28.057 -13.886 -82.7298
rradius 33.1127
rwrist 4.26637
rhand -16.461 7.6464
rfingers 7.12502
rthumb 9.75541 -22.1077
lclavicle -9.43606e-015 -6.36111e-015
lhumerus -37.5487 9.57336 82.7639
lradius 23.7608
lwrist -14.1102
lhand -17.848 25.691
lfingers 7.12502
lthumb 8.41698 55.5032
rfemur 7.9803 -1.5844 22.3068
rtibia 37.7584
rfoot 2.62973 -2.09192
rtoes -2.31892
lfemur -13.0691 1.71124 -22.8267
ltibia 11.6603
lfoot 5.54435 3.45342
ltoes 2.87568
